<svg width="277" height="45" viewBox="0 0 277 45" fill="none" xmlns="http://www.w3.org/2000/svg">
<path d="M17.76 34C8.496 34 0.96 26.464 0.96 17.2C0.96 7.936 8.496 0.399998 17.76 0.399998C25.008 0.399998 31.152 4.96 33.552 11.392H27.552C25.536 8.08 21.936 5.824 17.76 5.824C11.472 5.824 6.384 10.912 6.384 17.2C6.384 23.488 11.472 28.576 17.76 28.576C21.552 28.576 24.864 26.752 26.928 23.92C27.168 23.584 27.36 23.296 27.552 23.008C27.696 22.672 27.888 22.384 27.984 22.048H18.576V16.624H33.552V34.096H29.376L28.08 30.592V30.448C25.248 32.656 21.648 34 17.76 34ZM48.3049 8.608C49.6969 8.608 51.0409 8.848 52.2409 9.328L49.4089 14.08C49.0729 13.984 48.6889 13.936 48.3049 13.936C45.3769 13.936 42.9769 16.336 42.9769 19.312V34H37.5049V8.608H42.9769V10.048C44.5609 9.136 46.3849 8.608 48.3049 8.608ZM71.4146 8.56H76.8866V34H72.4706L71.4146 31.792V31.744C69.3506 33.136 66.8546 34 64.1666 34C57.1586 34 51.4466 28.288 51.4466 21.28C51.4466 14.272 57.1586 8.56 64.1666 8.56C66.8546 8.56 69.3506 9.424 71.4146 10.864V8.56ZM64.1666 28.528C68.1986 28.528 71.4146 25.312 71.4146 21.28C71.4146 17.248 68.1986 14.032 64.1666 14.032C60.1346 14.032 56.9186 17.248 56.9186 21.28C56.9186 25.312 60.1346 28.528 64.1666 28.528ZM81.1901 34V13.264H86.6621V34H81.1901ZM81.1901 6.784H86.6621V12.16H81.1901V6.784ZM101.789 8.608C107.741 8.608 112.589 13.456 112.589 19.408V34H107.165V19.312C107.165 16.384 104.765 13.936 101.789 13.936C98.8613 13.936 96.4613 16.336 96.4613 19.312V34H90.9893V8.608H96.4613V10.048C98.0453 9.136 99.8693 8.608 101.789 8.608ZM129.655 0.399998H151.495V5.872H143.287V34H137.863V5.872H129.655V0.399998ZM164.508 8.608C170.46 8.608 175.308 13.456 175.308 19.408V34H169.884V19.312C169.884 16.384 167.484 13.936 164.508 13.936C161.58 13.936 159.18 16.336 159.18 19.312V34H153.708V0.399998H159.18V10.048C160.764 9.136 162.588 8.608 164.508 8.608ZM190.917 8.56C197.925 8.56 203.637 14.272 203.637 21.28C203.637 22.384 203.493 23.44 203.253 24.448H184.389C185.541 26.848 188.037 28.528 190.917 28.528C192.453 28.528 193.893 28.048 195.045 27.28H202.149C199.989 31.264 195.765 34 190.917 34C183.909 34 178.197 28.288 178.197 21.28C178.197 14.272 183.909 8.56 190.917 8.56ZM183.861 19.6H197.973C197.205 16.384 194.325 14.032 190.917 14.032C187.461 14.032 184.629 16.384 183.861 19.6ZM218.432 8.56C225.44 8.56 231.152 14.272 231.152 21.28C231.152 28.288 225.44 34 218.432 34C211.424 34 205.712 28.288 205.712 21.28C205.712 14.272 211.424 8.56 218.432 8.56ZM218.432 28.528C222.464 28.528 225.68 25.312 225.68 21.28C225.68 17.248 222.464 14.032 218.432 14.032C214.4 14.032 211.184 17.248 211.184 21.28C211.184 25.312 214.4 28.528 218.432 28.528ZM245.227 8.608C246.619 8.608 247.963 8.848 249.163 9.328L246.331 14.08C245.995 13.984 245.611 13.936 245.227 13.936C242.299 13.936 239.899 16.336 239.899 19.312V34H234.427V8.608H239.899V10.048C241.483 9.136 243.307 8.608 245.227 8.608ZM269.78 8.608H276.596L267.188 34L263.348 44.368H256.58L259.604 36.208L249.332 8.608H256.1L262.964 27.088L264.164 23.92L269.78 8.608Z" fill="white"/>
</svg>
